<svg xmlns="http://www.w3.org/2000/svg" xmlns:xlink="http://www.w3.org/1999/xlink" version="1.1" width="374pt" height="282.5pt" viewBox="0 0 374 282.5">
<path transform="matrix(.1,0,0,-.1,0,282.5)" d="M-245-132.469H3954.96V3017.501H-245Z" fill="#ffffff"/>
<path transform="matrix(.1,0,0,-.1,0,282.5)" d="M-245-132.469H3954.96V3017.501H-245Z" fill="#ffffff"/>
<path transform="matrix(.1,0,0,-.1,0,282.5)" d="M301.66 214.195H3554.96V2780.835H301.66Z" fill="#ffffff"/>
<path transform="matrix(.1,0,0,-.1,0,282.5)" stroke-width="4.99995" stroke-linecap="square" stroke-linejoin="round" fill="none" stroke="#323232" d="M301.66 214.195H3554.96"/>
<path transform="matrix(.1,0,0,-.1,0,282.5)" stroke-width="4.99995" stroke-linecap="square" stroke-linejoin="round" fill="none" stroke="#323232" d="M301.66 2780.84H3554.96"/>
<path transform="matrix(.1,0,0,-.1,0,282.5)" stroke-width="4.99995" stroke-linecap="square" stroke-linejoin="round" fill="none" stroke="#323232" d="M301.66 214.195V246.727"/>
<path transform="matrix(.1,0,0,-.1,0,282.5)" stroke-width="4.99995" stroke-linecap="square" stroke-linejoin="round" fill="none" stroke="#323232" d="M1367.7 214.195V246.727"/>
<path transform="matrix(.1,0,0,-.1,0,282.5)" stroke-width="4.99995" stroke-linecap="square" stroke-linejoin="round" fill="none" stroke="#323232" d="M2285.02 214.195V246.727"/>
<path transform="matrix(.1,0,0,-.1,0,282.5)" stroke-width="4.99995" stroke-linecap="square" stroke-linejoin="round" fill="none" stroke="#323232" d="M2980.55 214.195V246.727"/>
<path transform="matrix(.1,0,0,-.1,0,282.5)" stroke-width="4.99995" stroke-linecap="square" stroke-linejoin="round" fill="none" stroke="#323232" d="M3527.37 214.195V246.727"/>
<path transform="matrix(.1,0,0,-.1,0,282.5)" stroke-width="4.99995" stroke-linecap="square" stroke-linejoin="round" fill="none" stroke="#323232" d="M301.66 2780.84V2748.3"/>
<path transform="matrix(.1,0,0,-.1,0,282.5)" stroke-width="4.99995" stroke-linecap="square" stroke-linejoin="round" fill="none" stroke="#323232" d="M1367.7 2780.84V2748.3"/>
<path transform="matrix(.1,0,0,-.1,0,282.5)" stroke-width="4.99995" stroke-linecap="square" stroke-linejoin="round" fill="none" stroke="#323232" d="M2285.02 2780.84V2748.3"/>
<path transform="matrix(.1,0,0,-.1,0,282.5)" stroke-width="4.99995" stroke-linecap="square" stroke-linejoin="round" fill="none" stroke="#323232" d="M2980.55 2780.84V2748.3"/>
<path transform="matrix(.1,0,0,-.1,0,282.5)" stroke-width="4.99995" stroke-linecap="square" stroke-linejoin="round" fill="none" stroke="#323232" d="M3527.37 2780.84V2748.3"/>
<path transform="matrix(.1,0,0,-.1,0,282.5)" stroke-width="4.99995" stroke-linecap="square" stroke-linejoin="round" fill="none" stroke="#323232" d="M301.66 214.195V230.461"/>
<path transform="matrix(.1,0,0,-.1,0,282.5)" stroke-width="4.99995" stroke-linecap="square" stroke-linejoin="round" fill="none" stroke="#323232" d="M1108.09 214.195V230.461"/>
<path transform="matrix(.1,0,0,-.1,0,282.5)" stroke-width="4.99995" stroke-linecap="square" stroke-linejoin="round" fill="none" stroke="#323232" d="M1579.82 214.195V230.461"/>
<path transform="matrix(.1,0,0,-.1,0,282.5)" stroke-width="4.99995" stroke-linecap="square" stroke-linejoin="round" fill="none" stroke="#323232" d="M1914.52 214.195V230.461"/>
<path transform="matrix(.1,0,0,-.1,0,282.5)" stroke-width="4.99995" stroke-linecap="square" stroke-linejoin="round" fill="none" stroke="#323232" d="M2174.13 214.195V230.461"/>
<path transform="matrix(.1,0,0,-.1,0,282.5)" stroke-width="4.99995" stroke-linecap="square" stroke-linejoin="round" fill="none" stroke="#323232" d="M2386.24 214.195V230.461"/>
<path transform="matrix(.1,0,0,-.1,0,282.5)" stroke-width="4.99995" stroke-linecap="square" stroke-linejoin="round" fill="none" stroke="#323232" d="M2565.59 214.195V230.461"/>
<path transform="matrix(.1,0,0,-.1,0,282.5)" stroke-width="4.99995" stroke-linecap="square" stroke-linejoin="round" fill="none" stroke="#323232" d="M2720.95 214.195V230.461"/>
<path transform="matrix(.1,0,0,-.1,0,282.5)" stroke-width="4.99995" stroke-linecap="square" stroke-linejoin="round" fill="none" stroke="#323232" d="M2857.98 214.195V230.461"/>
<path transform="matrix(.1,0,0,-.1,0,282.5)" stroke-width="4.99995" stroke-linecap="square" stroke-linejoin="round" fill="none" stroke="#323232" d="M2980.55 214.195V230.461"/>
<path transform="matrix(.1,0,0,-.1,0,282.5)" stroke-width="4.99995" stroke-linecap="square" stroke-linejoin="round" fill="none" stroke="#323232" d="M301.66 2780.84V2764.57"/>
<path transform="matrix(.1,0,0,-.1,0,282.5)" stroke-width="4.99995" stroke-linecap="square" stroke-linejoin="round" fill="none" stroke="#323232" d="M1108.09 2780.84V2764.57"/>
<path transform="matrix(.1,0,0,-.1,0,282.5)" stroke-width="4.99995" stroke-linecap="square" stroke-linejoin="round" fill="none" stroke="#323232" d="M1579.82 2780.84V2764.57"/>
<path transform="matrix(.1,0,0,-.1,0,282.5)" stroke-width="4.99995" stroke-linecap="square" stroke-linejoin="round" fill="none" stroke="#323232" d="M1914.52 2780.84V2764.57"/>
<path transform="matrix(.1,0,0,-.1,0,282.5)" stroke-width="4.99995" stroke-linecap="square" stroke-linejoin="round" fill="none" stroke="#323232" d="M2174.13 2780.84V2764.57"/>
<path transform="matrix(.1,0,0,-.1,0,282.5)" stroke-width="4.99995" stroke-linecap="square" stroke-linejoin="round" fill="none" stroke="#323232" d="M2386.24 2780.84V2764.57"/>
<path transform="matrix(.1,0,0,-.1,0,282.5)" stroke-width="4.99995" stroke-linecap="square" stroke-linejoin="round" fill="none" stroke="#323232" d="M2565.59 2780.84V2764.57"/>
<path transform="matrix(.1,0,0,-.1,0,282.5)" stroke-width="4.99995" stroke-linecap="square" stroke-linejoin="round" fill="none" stroke="#323232" d="M2720.95 2780.84V2764.57"/>
<path transform="matrix(.1,0,0,-.1,0,282.5)" stroke-width="4.99995" stroke-linecap="square" stroke-linejoin="round" fill="none" stroke="#323232" d="M2857.98 2780.84V2764.57"/>
<path transform="matrix(.1,0,0,-.1,0,282.5)" stroke-width="4.99995" stroke-linecap="square" stroke-linejoin="round" fill="none" stroke="#323232" d="M2980.55 2780.84V2764.57"/>
<text fill="#323232" xml:space="preserve" transform="matrix(1 0 -0 1 0 282.5)" font-size="13.9999" font-family="Helvetica"><tspan y="-2.28359" x="14.5 22.283946 30.06789 37.851839 121.10533 128.88928 136.67324 144.45719 212.83803 220.62198 228.40593 236.18988 278.55976 286.3437 294.12763 301.91157 309.6955 333.2419 341.02586 348.80979 356.59373 364.37767">1000250055001000016000</tspan></text>
<path transform="matrix(.1,0,0,-.1,0,282.5)" stroke-width="4.99995" stroke-linecap="square" stroke-linejoin="round" fill="none" stroke="#323232" d="M301.66 214.195V2780.84"/>
<path transform="matrix(.1,0,0,-.1,0,282.5)" stroke-width="4.99995" stroke-linecap="square" stroke-linejoin="round" fill="none" stroke="#323232" d="M3554.96 214.195V2780.84"/>
<path transform="matrix(.1,0,0,-.1,0,282.5)" stroke-width="4.99995" stroke-linecap="square" stroke-linejoin="round" fill="none" stroke="#323232" d="M301.66 338.078H334.195"/>
<path transform="matrix(.1,0,0,-.1,0,282.5)" stroke-width="4.99995" stroke-linecap="square" stroke-linejoin="round" fill="none" stroke="#323232" d="M301.66 1119.34H334.195"/>
<path transform="matrix(.1,0,0,-.1,0,282.5)" stroke-width="4.99995" stroke-linecap="square" stroke-linejoin="round" fill="none" stroke="#323232" d="M301.66 1900.6H334.195"/>
<path transform="matrix(.1,0,0,-.1,0,282.5)" stroke-width="4.99995" stroke-linecap="square" stroke-linejoin="round" fill="none" stroke="#323232" d="M301.66 2681.86H334.195"/>
<path transform="matrix(.1,0,0,-.1,0,282.5)" stroke-width="4.99995" stroke-linecap="square" stroke-linejoin="round" fill="none" stroke="#323232" d="M3554.96 338.078H3522.43"/>
<path transform="matrix(.1,0,0,-.1,0,282.5)" stroke-width="4.99995" stroke-linecap="square" stroke-linejoin="round" fill="none" stroke="#323232" d="M3554.96 1119.34H3522.43"/>
<path transform="matrix(.1,0,0,-.1,0,282.5)" stroke-width="4.99995" stroke-linecap="square" stroke-linejoin="round" fill="none" stroke="#323232" d="M3554.96 1900.6H3522.43"/>
<path transform="matrix(.1,0,0,-.1,0,282.5)" stroke-width="4.99995" stroke-linecap="square" stroke-linejoin="round" fill="none" stroke="#323232" d="M3554.96 2681.86H3522.43"/>
<path transform="matrix(.1,0,0,-.1,0,282.5)" stroke-width="4.99995" stroke-linecap="square" stroke-linejoin="round" fill="none" stroke="#323232" d="M301.66 217.059H317.93"/>
<path transform="matrix(.1,0,0,-.1,0,282.5)" stroke-width="4.99995" stroke-linecap="square" stroke-linejoin="round" fill="none" stroke="#323232" d="M301.66 262.363H317.93"/>
<path transform="matrix(.1,0,0,-.1,0,282.5)" stroke-width="4.99995" stroke-linecap="square" stroke-linejoin="round" fill="none" stroke="#323232" d="M301.66 302.328H317.93"/>
<path transform="matrix(.1,0,0,-.1,0,282.5)" stroke-width="4.99995" stroke-linecap="square" stroke-linejoin="round" fill="none" stroke="#323232" d="M301.66 338.078H317.93"/>
<path transform="matrix(.1,0,0,-.1,0,282.5)" stroke-width="4.99995" stroke-linecap="square" stroke-linejoin="round" fill="none" stroke="#323232" d="M301.66 573.258H317.93"/>
<path transform="matrix(.1,0,0,-.1,0,282.5)" stroke-width="4.99995" stroke-linecap="square" stroke-linejoin="round" fill="none" stroke="#323232" d="M301.66 710.832H317.93"/>
<path transform="matrix(.1,0,0,-.1,0,282.5)" stroke-width="4.99995" stroke-linecap="square" stroke-linejoin="round" fill="none" stroke="#323232" d="M301.66 808.441H317.93"/>
<path transform="matrix(.1,0,0,-.1,0,282.5)" stroke-width="4.99995" stroke-linecap="square" stroke-linejoin="round" fill="none" stroke="#323232" d="M301.66 884.156H317.93"/>
<path transform="matrix(.1,0,0,-.1,0,282.5)" stroke-width="4.99995" stroke-linecap="square" stroke-linejoin="round" fill="none" stroke="#323232" d="M301.66 946.016H317.93"/>
<path transform="matrix(.1,0,0,-.1,0,282.5)" stroke-width="4.99995" stroke-linecap="square" stroke-linejoin="round" fill="none" stroke="#323232" d="M301.66 998.316H317.93"/>
<path transform="matrix(.1,0,0,-.1,0,282.5)" stroke-width="4.99995" stroke-linecap="square" stroke-linejoin="round" fill="none" stroke="#323232" d="M301.66 1043.63H317.93"/>
<path transform="matrix(.1,0,0,-.1,0,282.5)" stroke-width="4.99995" stroke-linecap="square" stroke-linejoin="round" fill="none" stroke="#323232" d="M301.66 1083.59H317.93"/>
<path transform="matrix(.1,0,0,-.1,0,282.5)" stroke-width="4.99995" stroke-linecap="square" stroke-linejoin="round" fill="none" stroke="#323232" d="M301.66 1119.34H317.93"/>
<path transform="matrix(.1,0,0,-.1,0,282.5)" stroke-width="4.99995" stroke-linecap="square" stroke-linejoin="round" fill="none" stroke="#323232" d="M301.66 1354.52H317.93"/>
<path transform="matrix(.1,0,0,-.1,0,282.5)" stroke-width="4.99995" stroke-linecap="square" stroke-linejoin="round" fill="none" stroke="#323232" d="M301.66 1492.09H317.93"/>
<path transform="matrix(.1,0,0,-.1,0,282.5)" stroke-width="4.99995" stroke-linecap="square" stroke-linejoin="round" fill="none" stroke="#323232" d="M301.66 1589.7H317.93"/>
<path transform="matrix(.1,0,0,-.1,0,282.5)" stroke-width="4.99995" stroke-linecap="square" stroke-linejoin="round" fill="none" stroke="#323232" d="M301.66 1665.41H317.93"/>
<path transform="matrix(.1,0,0,-.1,0,282.5)" stroke-width="4.99995" stroke-linecap="square" stroke-linejoin="round" fill="none" stroke="#323232" d="M301.66 1727.28H317.93"/>
<path transform="matrix(.1,0,0,-.1,0,282.5)" stroke-width="4.99995" stroke-linecap="square" stroke-linejoin="round" fill="none" stroke="#323232" d="M301.66 1779.58H317.93"/>
<path transform="matrix(.1,0,0,-.1,0,282.5)" stroke-width="4.99995" stroke-linecap="square" stroke-linejoin="round" fill="none" stroke="#323232" d="M301.66 1824.89H317.93"/>
<path transform="matrix(.1,0,0,-.1,0,282.5)" stroke-width="4.99995" stroke-linecap="square" stroke-linejoin="round" fill="none" stroke="#323232" d="M301.66 1864.85H317.93"/>
<path transform="matrix(.1,0,0,-.1,0,282.5)" stroke-width="4.99995" stroke-linecap="square" stroke-linejoin="round" fill="none" stroke="#323232" d="M301.66 1900.6H317.93"/>
<path transform="matrix(.1,0,0,-.1,0,282.5)" stroke-width="4.99995" stroke-linecap="square" stroke-linejoin="round" fill="none" stroke="#323232" d="M301.66 2135.78H317.93"/>
<path transform="matrix(.1,0,0,-.1,0,282.5)" stroke-width="4.99995" stroke-linecap="square" stroke-linejoin="round" fill="none" stroke="#323232" d="M301.66 2273.36H317.93"/>
<path transform="matrix(.1,0,0,-.1,0,282.5)" stroke-width="4.99995" stroke-linecap="square" stroke-linejoin="round" fill="none" stroke="#323232" d="M301.66 2370.96H317.93"/>
<path transform="matrix(.1,0,0,-.1,0,282.5)" stroke-width="4.99995" stroke-linecap="square" stroke-linejoin="round" fill="none" stroke="#323232" d="M301.66 2446.68H317.93"/>
<path transform="matrix(.1,0,0,-.1,0,282.5)" stroke-width="4.99995" stroke-linecap="square" stroke-linejoin="round" fill="none" stroke="#323232" d="M301.66 2508.54H317.93"/>
<path transform="matrix(.1,0,0,-.1,0,282.5)" stroke-width="4.99995" stroke-linecap="square" stroke-linejoin="round" fill="none" stroke="#323232" d="M301.66 2560.84H317.93"/>
<path transform="matrix(.1,0,0,-.1,0,282.5)" stroke-width="4.99995" stroke-linecap="square" stroke-linejoin="round" fill="none" stroke="#323232" d="M301.66 2606.15H317.93"/>
<path transform="matrix(.1,0,0,-.1,0,282.5)" stroke-width="4.99995" stroke-linecap="square" stroke-linejoin="round" fill="none" stroke="#323232" d="M301.66 2646.11H317.93"/>
<path transform="matrix(.1,0,0,-.1,0,282.5)" stroke-width="4.99995" stroke-linecap="square" stroke-linejoin="round" fill="none" stroke="#323232" d="M301.66 2681.86H317.93"/>
<path transform="matrix(.1,0,0,-.1,0,282.5)" stroke-width="4.99995" stroke-linecap="square" stroke-linejoin="round" fill="none" stroke="#323232" d="M3554.96 217.059H3538.7"/>
<path transform="matrix(.1,0,0,-.1,0,282.5)" stroke-width="4.99995" stroke-linecap="square" stroke-linejoin="round" fill="none" stroke="#323232" d="M3554.96 262.363H3538.7"/>
<path transform="matrix(.1,0,0,-.1,0,282.5)" stroke-width="4.99995" stroke-linecap="square" stroke-linejoin="round" fill="none" stroke="#323232" d="M3554.96 302.328H3538.7"/>
<path transform="matrix(.1,0,0,-.1,0,282.5)" stroke-width="4.99995" stroke-linecap="square" stroke-linejoin="round" fill="none" stroke="#323232" d="M3554.96 338.078H3538.7"/>
<path transform="matrix(.1,0,0,-.1,0,282.5)" stroke-width="4.99995" stroke-linecap="square" stroke-linejoin="round" fill="none" stroke="#323232" d="M3554.96 573.258H3538.7"/>
<path transform="matrix(.1,0,0,-.1,0,282.5)" stroke-width="4.99995" stroke-linecap="square" stroke-linejoin="round" fill="none" stroke="#323232" d="M3554.96 710.832H3538.7"/>
<path transform="matrix(.1,0,0,-.1,0,282.5)" stroke-width="4.99995" stroke-linecap="square" stroke-linejoin="round" fill="none" stroke="#323232" d="M3554.96 808.441H3538.7"/>
<path transform="matrix(.1,0,0,-.1,0,282.5)" stroke-width="4.99995" stroke-linecap="square" stroke-linejoin="round" fill="none" stroke="#323232" d="M3554.96 884.156H3538.7"/>
<path transform="matrix(.1,0,0,-.1,0,282.5)" stroke-width="4.99995" stroke-linecap="square" stroke-linejoin="round" fill="none" stroke="#323232" d="M3554.96 946.016H3538.7"/>
<path transform="matrix(.1,0,0,-.1,0,282.5)" stroke-width="4.99995" stroke-linecap="square" stroke-linejoin="round" fill="none" stroke="#323232" d="M3554.96 998.316H3538.7"/>
<path transform="matrix(.1,0,0,-.1,0,282.5)" stroke-width="4.99995" stroke-linecap="square" stroke-linejoin="round" fill="none" stroke="#323232" d="M3554.96 1043.63H3538.7"/>
<path transform="matrix(.1,0,0,-.1,0,282.5)" stroke-width="4.99995" stroke-linecap="square" stroke-linejoin="round" fill="none" stroke="#323232" d="M3554.96 1083.59H3538.7"/>
<path transform="matrix(.1,0,0,-.1,0,282.5)" stroke-width="4.99995" stroke-linecap="square" stroke-linejoin="round" fill="none" stroke="#323232" d="M3554.96 1119.34H3538.7"/>
<path transform="matrix(.1,0,0,-.1,0,282.5)" stroke-width="4.99995" stroke-linecap="square" stroke-linejoin="round" fill="none" stroke="#323232" d="M3554.96 1354.52H3538.7"/>
<path transform="matrix(.1,0,0,-.1,0,282.5)" stroke-width="4.99995" stroke-linecap="square" stroke-linejoin="round" fill="none" stroke="#323232" d="M3554.96 1492.09H3538.7"/>
<path transform="matrix(.1,0,0,-.1,0,282.5)" stroke-width="4.99995" stroke-linecap="square" stroke-linejoin="round" fill="none" stroke="#323232" d="M3554.96 1589.7H3538.7"/>
<path transform="matrix(.1,0,0,-.1,0,282.5)" stroke-width="4.99995" stroke-linecap="square" stroke-linejoin="round" fill="none" stroke="#323232" d="M3554.96 1665.41H3538.7"/>
<path transform="matrix(.1,0,0,-.1,0,282.5)" stroke-width="4.99995" stroke-linecap="square" stroke-linejoin="round" fill="none" stroke="#323232" d="M3554.96 1727.28H3538.7"/>
<path transform="matrix(.1,0,0,-.1,0,282.5)" stroke-width="4.99995" stroke-linecap="square" stroke-linejoin="round" fill="none" stroke="#323232" d="M3554.96 1779.58H3538.7"/>
<path transform="matrix(.1,0,0,-.1,0,282.5)" stroke-width="4.99995" stroke-linecap="square" stroke-linejoin="round" fill="none" stroke="#323232" d="M3554.96 1824.89H3538.7"/>
<path transform="matrix(.1,0,0,-.1,0,282.5)" stroke-width="4.99995" stroke-linecap="square" stroke-linejoin="round" fill="none" stroke="#323232" d="M3554.96 1864.85H3538.7"/>
<path transform="matrix(.1,0,0,-.1,0,282.5)" stroke-width="4.99995" stroke-linecap="square" stroke-linejoin="round" fill="none" stroke="#323232" d="M3554.96 1900.6H3538.7"/>
<path transform="matrix(.1,0,0,-.1,0,282.5)" stroke-width="4.99995" stroke-linecap="square" stroke-linejoin="round" fill="none" stroke="#323232" d="M3554.96 2135.78H3538.7"/>
<path transform="matrix(.1,0,0,-.1,0,282.5)" stroke-width="4.99995" stroke-linecap="square" stroke-linejoin="round" fill="none" stroke="#323232" d="M3554.96 2273.36H3538.7"/>
<path transform="matrix(.1,0,0,-.1,0,282.5)" stroke-width="4.99995" stroke-linecap="square" stroke-linejoin="round" fill="none" stroke="#323232" d="M3554.96 2370.96H3538.7"/>
<path transform="matrix(.1,0,0,-.1,0,282.5)" stroke-width="4.99995" stroke-linecap="square" stroke-linejoin="round" fill="none" stroke="#323232" d="M3554.96 2446.68H3538.7"/>
<path transform="matrix(.1,0,0,-.1,0,282.5)" stroke-width="4.99995" stroke-linecap="square" stroke-linejoin="round" fill="none" stroke="#323232" d="M3554.96 2508.54H3538.7"/>
<path transform="matrix(.1,0,0,-.1,0,282.5)" stroke-width="4.99995" stroke-linecap="square" stroke-linejoin="round" fill="none" stroke="#323232" d="M3554.96 2560.84H3538.7"/>
<path transform="matrix(.1,0,0,-.1,0,282.5)" stroke-width="4.99995" stroke-linecap="square" stroke-linejoin="round" fill="none" stroke="#323232" d="M3554.96 2606.15H3538.7"/>
<path transform="matrix(.1,0,0,-.1,0,282.5)" stroke-width="4.99995" stroke-linecap="square" stroke-linejoin="round" fill="none" stroke="#323232" d="M3554.96 2646.11H3538.7"/>
<path transform="matrix(.1,0,0,-.1,0,282.5)" stroke-width="4.99995" stroke-linecap="square" stroke-linejoin="round" fill="none" stroke="#323232" d="M3554.96 2681.86H3538.7"/>
<text fill="#323232" xml:space="preserve" transform="matrix(1 0 -0 1 0 282.5)" font-size="13.9999" font-family="Helvetica"><tspan y="-26.0832" x="-.166797 7.617148">10</tspan></text>
<text fill="#323232" xml:space="preserve" transform="matrix(1 0 -0 1 0 282.5)" font-size="11.1999" font-family="Helvetica"><tspan y="-33.0832" x="15.500003 19.229569">-1</tspan></text>
<text fill="#323232" xml:space="preserve" transform="matrix(1 0 -0 1 0 282.5)" font-size="13.9999" font-family="Helvetica"><tspan y="-104.4168" x="3.5000029 11.283948">10</tspan></text>
<text fill="#323232" xml:space="preserve" transform="matrix(1 0 -0 1 0 282.5)" font-size="11.1999" font-family="Helvetica"><tspan y="-111.4168" x="19.166802">0</tspan></text>
<text fill="#323232" xml:space="preserve" transform="matrix(1 0 -0 1 0 282.5)" font-size="13.9999" font-family="Helvetica"><tspan y="-182.41681" x="3.500002 11.283947">10</tspan></text>
<text fill="#323232" xml:space="preserve" transform="matrix(1 0 -0 1 0 282.5)" font-size="11.1999" font-family="Helvetica"><tspan y="-189.41681" x="19.166802">1</tspan></text>
<text fill="#323232" xml:space="preserve" transform="matrix(1 0 -0 1 0 282.5)" font-size="13.9999" font-family="Helvetica"><tspan y="-260.4168" x="3.500002 11.283947">10</tspan></text>
<text fill="#323232" xml:space="preserve" transform="matrix(1 0 -0 1 0 282.5)" font-size="11.1999" font-family="Helvetica"><tspan y="-267.4168" x="19.166802">2</tspan></text>
<path transform="matrix(.1,0,0,-.1,0,282.5)" stroke-width="24.9998" stroke-linecap="butt" stroke-linejoin="round" fill="none" stroke="#0072bd" d="M329.254 214.195 1135.68 513.734 1942.11 704.516 2748.54 930.391 3554.96 1142.58"/>
<path transform="matrix(.1,0,0,-.1,0,282.5)" d="M358.594 214.168C358.594 230.367 345.461 243.5 329.258 243.5 313.059 243.5 299.926 230.367 299.926 214.168 299.926 197.965 313.059 184.832 329.258 184.832 345.461 184.832 358.594 197.965 358.594 214.168" fill="#0072bd"/>
<path transform="matrix(.1,0,0,-.1,0,282.5)" d="M329.258 231C338.555 231 346.094 223.465 346.094 214.168 346.094 204.871 338.555 197.332 329.258 197.332 319.961 197.332 312.426 204.871 312.426 214.168 312.426 223.465 319.961 231 329.258 231ZM329.258 256C306.156 256 287.426 237.27 287.426 214.168 287.426 191.063 306.156 172.332 329.258 172.332 352.363 172.332 371.094 191.063 371.094 214.168 371.094 237.27 352.363 256 329.258 256" fill="#0072bd"/>
<path transform="matrix(.1,0,0,-.1,0,282.5)" d="M1165.03 513.711C1165.03 529.91 1151.89 543.043 1135.7 543.043 1119.5 543.043 1106.36 529.91 1106.36 513.711 1106.36 497.512 1119.5 484.379 1135.7 484.379 1151.89 484.379 1165.03 497.512 1165.03 513.711" fill="#0072bd"/>
<path transform="matrix(.1,0,0,-.1,0,282.5)" d="M1135.7 530.543C1144.99 530.543 1152.53 523.008 1152.53 513.711 1152.53 504.414 1144.99 496.879 1135.7 496.879 1126.4 496.879 1118.86 504.414 1118.86 513.711 1118.86 523.008 1126.4 530.543 1135.7 530.543ZM1135.7 555.543C1112.59 555.543 1093.86 536.813 1093.86 513.711 1093.86 490.605 1112.59 471.879 1135.7 471.879 1158.8 471.879 1177.53 490.605 1177.53 513.711 1177.53 536.813 1158.8 555.543 1135.7 555.543" fill="#0072bd"/>
<path transform="matrix(.1,0,0,-.1,0,282.5)" d="M1971.46 704.492C1971.46 720.691 1958.33 733.824 1942.13 733.824 1925.93 733.824 1912.8 720.691 1912.8 704.492 1912.8 688.293 1925.93 675.16 1942.13 675.16 1958.33 675.16 1971.46 688.293 1971.46 704.492" fill="#0072bd"/>
<path transform="matrix(.1,0,0,-.1,0,282.5)" d="M1942.13 721.324C1951.43 721.324 1958.96 713.789 1958.96 704.492 1958.96 695.195 1951.43 687.66 1942.13 687.66 1932.83 687.66 1925.3 695.195 1925.3 704.492 1925.3 713.789 1932.83 721.324 1942.13 721.324ZM1942.13 746.324C1919.03 746.324 1900.3 727.598 1900.3 704.492 1900.3 681.391 1919.03 662.66 1942.13 662.66 1965.23 662.66 1983.96 681.391 1983.96 704.492 1983.96 727.598 1965.23 746.324 1942.13 746.324" fill="#0072bd"/>
<path transform="matrix(.1,0,0,-.1,0,282.5)" d="M2777.9 930.371C2777.9 946.57 2764.77 959.703 2748.57 959.703 2732.36 959.703 2719.23 946.57 2719.23 930.371 2719.23 914.172 2732.36 901.039 2748.57 901.039 2764.77 901.039 2777.9 914.172 2777.9 930.371" fill="#0072bd"/>
<path transform="matrix(.1,0,0,-.1,0,282.5)" d="M2748.57 947.203C2757.86 947.203 2765.4 939.668 2765.4 930.371 2765.4 921.074 2757.86 913.539 2748.57 913.539 2739.27 913.539 2731.73 921.074 2731.73 930.371 2731.73 939.668 2739.27 947.203 2748.57 947.203ZM2748.57 972.203C2725.46 972.203 2706.73 953.473 2706.73 930.371 2706.73 907.266 2725.46 888.539 2748.57 888.539 2771.67 888.539 2790.4 907.266 2790.4 930.371 2790.4 953.473 2771.67 972.203 2748.57 972.203" fill="#0072bd"/>
<path transform="matrix(.1,0,0,-.1,0,282.5)" d="M3584.33 1142.56C3584.33 1158.76 3571.2 1171.89 3555 1171.89 3538.8 1171.89 3525.67 1158.76 3525.67 1142.56 3525.67 1126.36 3538.8 1113.23 3555 1113.23 3571.2 1113.23 3584.33 1126.36 3584.33 1142.56" fill="#0072bd"/>
<path transform="matrix(.1,0,0,-.1,0,282.5)" d="M3555 1159.39C3564.3 1159.39 3571.83 1151.86 3571.83 1142.56 3571.83 1133.26 3564.3 1125.73 3555 1125.73 3545.7 1125.73 3538.17 1133.26 3538.17 1142.56 3538.17 1151.86 3545.7 1159.39 3555 1159.39ZM3555 1184.39C3531.9 1184.39 3513.17 1165.66 3513.17 1142.56 3513.17 1119.46 3531.9 1100.73 3555 1100.73 3578.1 1100.73 3596.83 1119.46 3596.83 1142.56 3596.83 1165.66 3578.1 1184.39 3555 1184.39" fill="#0072bd"/>
<path transform="matrix(.1,0,0,-.1,0,282.5)" stroke-width="19.9998" stroke-linecap="butt" stroke-linejoin="round" fill="none" stroke="#d95319" d="M329.254 287.434 1135.68 605.434 1942.11 849.863 2748.54 1106.38 3554.96 1339.48"/>
<path transform="matrix(.1,0,0,-.1,0,282.5)" d="M358.594 287.406C358.594 303.605 345.461 316.738 329.258 316.738 313.059 316.738 299.926 303.605 299.926 287.406 299.926 271.207 313.059 258.074 329.258 258.074 345.461 258.074 358.594 271.207 358.594 287.406" fill="#d95319"/>
<path transform="matrix(.1,0,0,-.1,0,282.5)" d="M329.258 306.738C339.938 306.738 348.594 298.082 348.594 287.406 348.594 276.73 339.938 268.074 329.258 268.074 318.582 268.074 309.926 276.73 309.926 287.406 309.926 298.082 318.582 306.738 329.258 306.738ZM329.258 326.738C307.535 326.738 289.926 309.129 289.926 287.406 289.926 265.684 307.535 248.074 329.258 248.074 350.984 248.074 368.594 265.684 368.594 287.406 368.594 309.129 350.984 326.738 329.258 326.738" fill="#d95319"/>
<path transform="matrix(.1,0,0,-.1,0,282.5)" d="M1165.03 605.41C1165.03 621.609 1151.89 634.742 1135.7 634.742 1119.5 634.742 1106.36 621.609 1106.36 605.41 1106.36 589.211 1119.5 576.078 1135.7 576.078 1151.89 576.078 1165.03 589.211 1165.03 605.41" fill="#d95319"/>
<path transform="matrix(.1,0,0,-.1,0,282.5)" d="M1135.7 624.742C1146.37 624.742 1155.03 616.086 1155.03 605.41 1155.03 594.734 1146.37 586.078 1135.7 586.078 1125.02 586.078 1116.36 594.734 1116.36 605.41 1116.36 616.086 1125.02 624.742 1135.7 624.742ZM1135.7 644.742C1113.97 644.742 1096.36 627.133 1096.36 605.41 1096.36 583.688 1113.97 566.078 1135.7 566.078 1157.42 566.078 1175.03 583.688 1175.03 605.41 1175.03 627.133 1157.42 644.742 1135.7 644.742" fill="#d95319"/>
<path transform="matrix(.1,0,0,-.1,0,282.5)" d="M1971.46 849.844C1971.46 866.043 1958.33 879.176 1942.13 879.176 1925.93 879.176 1912.8 866.043 1912.8 849.844 1912.8 833.641 1925.93 820.508 1942.13 820.508 1958.33 820.508 1971.46 833.641 1971.46 849.844" fill="#d95319"/>
<path transform="matrix(.1,0,0,-.1,0,282.5)" d="M1942.13 869.176C1952.8 869.176 1961.46 860.52 1961.46 849.844 1961.46 839.164 1952.8 830.508 1942.13 830.508 1931.45 830.508 1922.8 839.164 1922.8 849.844 1922.8 860.52 1931.45 869.176 1942.13 869.176ZM1942.13 889.176C1920.41 889.176 1902.8 871.566 1902.8 849.844 1902.8 828.117 1920.41 810.508 1942.13 810.508 1963.85 810.508 1981.46 828.117 1981.46 849.844 1981.46 871.566 1963.85 889.176 1942.13 889.176" fill="#d95319"/>
<path transform="matrix(.1,0,0,-.1,0,282.5)" d="M2777.9 1106.36C2777.9 1122.56 2764.77 1135.69 2748.57 1135.69 2732.36 1135.69 2719.23 1122.56 2719.23 1106.36 2719.23 1090.16 2732.36 1077.02 2748.57 1077.02 2764.77 1077.02 2777.9 1090.16 2777.9 1106.36" fill="#d95319"/>
<path transform="matrix(.1,0,0,-.1,0,282.5)" d="M2748.57 1125.69C2759.24 1125.69 2767.9 1117.04 2767.9 1106.36 2767.9 1095.68 2759.24 1087.02 2748.57 1087.02 2737.89 1087.02 2729.23 1095.68 2729.23 1106.36 2729.23 1117.04 2737.89 1125.69 2748.57 1125.69ZM2748.57 1145.69C2726.84 1145.69 2709.23 1128.08 2709.23 1106.36 2709.23 1084.63 2726.84 1067.02 2748.57 1067.02 2770.29 1067.02 2787.9 1084.63 2787.9 1106.36 2787.9 1128.08 2770.29 1145.69 2748.57 1145.69" fill="#d95319"/>
<path transform="matrix(.1,0,0,-.1,0,282.5)" d="M3584.33 1339.46C3584.33 1355.66 3571.2 1368.8 3555 1368.8 3538.8 1368.8 3525.67 1355.66 3525.67 1339.46 3525.67 1323.26 3538.8 1310.13 3555 1310.13 3571.2 1310.13 3584.33 1323.26 3584.33 1339.46" fill="#d95319"/>
<path transform="matrix(.1,0,0,-.1,0,282.5)" d="M3555 1358.8C3565.68 1358.8 3574.33 1350.14 3574.33 1339.46 3574.33 1328.79 3565.68 1320.13 3555 1320.13 3544.32 1320.13 3535.67 1328.79 3535.67 1339.46 3535.67 1350.14 3544.32 1358.8 3555 1358.8ZM3555 1378.8C3533.28 1378.8 3515.67 1361.19 3515.67 1339.46 3515.67 1317.74 3533.28 1300.13 3555 1300.13 3576.72 1300.13 3594.33 1317.74 3594.33 1339.46 3594.33 1361.19 3576.72 1378.8 3555 1378.8" fill="#d95319"/>
<path transform="matrix(.1,0,0,-.1,0,282.5)" stroke-width="19.9998" stroke-linecap="butt" stroke-linejoin="round" fill="none" stroke="#edb120" d="M329.254 425.043 1135.68 948.516 1942.11 1507.82 2748.54 2124.86 3554.96 2780.84"/>
<path transform="matrix(.1,0,0,-.1,0,282.5)" d="M358.594 425.016C358.594 441.215 345.461 454.352 329.258 454.352 313.059 454.352 299.926 441.215 299.926 425.016 299.926 408.816 313.059 395.684 329.258 395.684 345.461 395.684 358.594 408.816 358.594 425.016" fill="#edb120"/>
<path transform="matrix(.1,0,0,-.1,0,282.5)" d="M329.258 444.352C339.938 444.352 348.594 435.695 348.594 425.016 348.594 414.34 339.938 405.684 329.258 405.684 318.582 405.684 309.926 414.34 309.926 425.016 309.926 435.695 318.582 444.352 329.258 444.352ZM329.258 464.352C307.535 464.352 289.926 446.738 289.926 425.016 289.926 403.293 307.535 385.684 329.258 385.684 350.984 385.684 368.594 403.293 368.594 425.016 368.594 446.738 350.984 464.352 329.258 464.352" fill="#edb120"/>
<path transform="matrix(.1,0,0,-.1,0,282.5)" d="M1165.03 948.496C1165.03 964.695 1151.89 977.828 1135.7 977.828 1119.5 977.828 1106.36 964.695 1106.36 948.496 1106.36 932.293 1119.5 919.16 1135.7 919.16 1151.89 919.16 1165.03 932.293 1165.03 948.496" fill="#edb120"/>
<path transform="matrix(.1,0,0,-.1,0,282.5)" d="M1135.7 967.828C1146.37 967.828 1155.03 959.172 1155.03 948.496 1155.03 937.816 1146.37 929.16 1135.7 929.16 1125.02 929.16 1116.36 937.816 1116.36 948.496 1116.36 959.172 1125.02 967.828 1135.7 967.828ZM1135.7 987.828C1113.97 987.828 1096.36 970.219 1096.36 948.496 1096.36 926.77 1113.97 909.16 1135.7 909.16 1157.42 909.16 1175.03 926.77 1175.03 948.496 1175.03 970.219 1157.42 987.828 1135.7 987.828" fill="#edb120"/>
<path transform="matrix(.1,0,0,-.1,0,282.5)" d="M1971.46 1507.81C1971.46 1524.01 1958.33 1537.14 1942.13 1537.14 1925.93 1537.14 1912.8 1524.01 1912.8 1507.81 1912.8 1491.61 1925.93 1478.48 1942.13 1478.48 1958.33 1478.48 1971.46 1491.61 1971.46 1507.81" fill="#edb120"/>
<path transform="matrix(.1,0,0,-.1,0,282.5)" d="M1942.13 1527.14C1952.8 1527.14 1961.46 1518.49 1961.46 1507.81 1961.46 1497.13 1952.8 1488.48 1942.13 1488.48 1931.45 1488.48 1922.8 1497.13 1922.8 1507.81 1922.8 1518.49 1931.45 1527.14 1942.13 1527.14ZM1942.13 1547.14C1920.41 1547.14 1902.8 1529.54 1902.8 1507.81 1902.8 1486.09 1920.41 1468.48 1942.13 1468.48 1963.85 1468.48 1981.46 1486.09 1981.46 1507.81 1981.46 1529.54 1963.85 1547.14 1942.13 1547.14" fill="#edb120"/>
<path transform="matrix(.1,0,0,-.1,0,282.5)" d="M2777.9 2124.85C2777.9 2141.05 2764.77 2154.18 2748.57 2154.18 2732.36 2154.18 2719.23 2141.05 2719.23 2124.85 2719.23 2108.65 2732.36 2095.52 2748.57 2095.52 2764.77 2095.52 2777.9 2108.65 2777.9 2124.85" fill="#edb120"/>
<path transform="matrix(.1,0,0,-.1,0,282.5)" d="M2748.57 2144.18C2759.24 2144.18 2767.9 2135.52 2767.9 2124.85 2767.9 2114.17 2759.24 2105.52 2748.57 2105.52 2737.89 2105.52 2729.23 2114.17 2729.23 2124.85 2729.23 2135.52 2737.89 2144.18 2748.57 2144.18ZM2748.57 2164.18C2726.84 2164.18 2709.23 2146.57 2709.23 2124.85 2709.23 2103.13 2726.84 2085.52 2748.57 2085.52 2770.29 2085.52 2787.9 2103.13 2787.9 2124.85 2787.9 2146.57 2770.29 2164.18 2748.57 2164.18" fill="#edb120"/>
<path transform="matrix(.1,0,0,-.1,0,282.5)" d="M3584.33 2780.83C3584.33 2797.04 3571.2 2810.17 3555 2810.17 3538.8 2810.17 3525.67 2797.04 3525.67 2780.83 3525.67 2764.63 3538.8 2751.5 3555 2751.5 3571.2 2751.5 3584.33 2764.63 3584.33 2780.83" fill="#edb120"/>
<path transform="matrix(.1,0,0,-.1,0,282.5)" d="M3555 2800.17C3565.68 2800.17 3574.33 2791.51 3574.33 2780.83 3574.33 2770.16 3565.68 2761.5 3555 2761.5 3544.32 2761.5 3535.67 2770.16 3535.67 2780.83 3535.67 2791.51 3544.32 2800.17 3555 2800.17ZM3555 2820.17C3533.28 2820.17 3515.67 2802.55 3515.67 2780.83 3515.67 2759.11 3533.28 2741.5 3555 2741.5 3576.72 2741.5 3594.33 2759.11 3594.33 2780.83 3594.33 2802.55 3576.72 2820.17 3555 2820.17" fill="#edb120"/>
<path transform="matrix(.1,0,0,-.1,0,282.5)" stroke-width="19.9998" stroke-linecap="butt" stroke-linejoin="round" fill="none" stroke="#7e2f8e" d="M329.254 556.406 1135.68 1016.39 1942.11 1483.86 2748.54 1903.04 3554.96 2329.13"/>
<path transform="matrix(.1,0,0,-.1,0,282.5)" d="M358.594 556.379C358.594 572.578 345.461 585.715 329.258 585.715 313.059 585.715 299.926 572.578 299.926 556.379 299.926 540.18 313.059 527.047 329.258 527.047 345.461 527.047 358.594 540.18 358.594 556.379" fill="#7e2f8e"/>
<path transform="matrix(.1,0,0,-.1,0,282.5)" d="M329.258 575.715C339.938 575.715 348.594 567.055 348.594 556.379 348.594 545.703 339.938 537.047 329.258 537.047 318.582 537.047 309.926 545.703 309.926 556.379 309.926 567.055 318.582 575.715 329.258 575.715ZM329.258 595.715C307.535 595.715 289.926 578.102 289.926 556.379 289.926 534.656 307.535 517.047 329.258 517.047 350.984 517.047 368.594 534.656 368.594 556.379 368.594 578.102 350.984 595.715 329.258 595.715" fill="#7e2f8e"/>
<path transform="matrix(.1,0,0,-.1,0,282.5)" d="M1165.03 1016.38C1165.03 1032.57 1151.89 1045.71 1135.7 1045.71 1119.5 1045.71 1106.36 1032.57 1106.36 1016.38 1106.36 1000.17 1119.5 987.039 1135.7 987.039 1151.89 987.039 1165.03 1000.17 1165.03 1016.38" fill="#7e2f8e"/>
<path transform="matrix(.1,0,0,-.1,0,282.5)" d="M1135.7 1035.71C1146.37 1035.71 1155.03 1027.05 1155.03 1016.38 1155.03 1005.7 1146.37 997.039 1135.7 997.039 1125.02 997.039 1116.36 1005.7 1116.36 1016.38 1116.36 1027.05 1125.02 1035.71 1135.7 1035.71ZM1135.7 1055.71C1113.97 1055.71 1096.36 1038.1 1096.36 1016.38 1096.36 994.648 1113.97 977.039 1135.7 977.039 1157.42 977.039 1175.03 994.648 1175.03 1016.38 1175.03 1038.1 1157.42 1055.71 1135.7 1055.71" fill="#7e2f8e"/>
<path transform="matrix(.1,0,0,-.1,0,282.5)" d="M1971.46 1483.84C1971.46 1500.04 1958.33 1513.18 1942.13 1513.18 1925.93 1513.18 1912.8 1500.04 1912.8 1483.84 1912.8 1467.64 1925.93 1454.51 1942.13 1454.51 1958.33 1454.51 1971.46 1467.64 1971.46 1483.84" fill="#7e2f8e"/>
<path transform="matrix(.1,0,0,-.1,0,282.5)" d="M1942.13 1503.18C1952.8 1503.18 1961.46 1494.52 1961.46 1483.84 1961.46 1473.17 1952.8 1464.51 1942.13 1464.51 1931.45 1464.51 1922.8 1473.17 1922.8 1483.84 1922.8 1494.52 1931.45 1503.18 1942.13 1503.18ZM1942.13 1523.18C1920.41 1523.18 1902.8 1505.57 1902.8 1483.84 1902.8 1462.12 1920.41 1444.51 1942.13 1444.51 1963.85 1444.51 1981.46 1462.12 1981.46 1483.84 1981.46 1505.57 1963.85 1523.18 1942.13 1523.18" fill="#7e2f8e"/>
<path transform="matrix(.1,0,0,-.1,0,282.5)" d="M2777.9 1903.03C2777.9 1919.23 2764.77 1932.36 2748.57 1932.36 2732.36 1932.36 2719.23 1919.23 2719.23 1903.03 2719.23 1886.83 2732.36 1873.7 2748.57 1873.7 2764.77 1873.7 2777.9 1886.83 2777.9 1903.03" fill="#7e2f8e"/>
<path transform="matrix(.1,0,0,-.1,0,282.5)" d="M2748.57 1922.36C2759.24 1922.36 2767.9 1913.71 2767.9 1903.03 2767.9 1892.36 2759.24 1883.7 2748.57 1883.7 2737.89 1883.7 2729.23 1892.36 2729.23 1903.03 2729.23 1913.71 2737.89 1922.36 2748.57 1922.36ZM2748.57 1942.36C2726.84 1942.36 2709.23 1924.75 2709.23 1903.03 2709.23 1881.31 2726.84 1863.7 2748.57 1863.7 2770.29 1863.7 2787.9 1881.31 2787.9 1903.03 2787.9 1924.75 2770.29 1942.36 2748.57 1942.36" fill="#7e2f8e"/>
<path transform="matrix(.1,0,0,-.1,0,282.5)" d="M3584.33 2329.13C3584.33 2345.32 3571.2 2358.46 3555 2358.46 3538.8 2358.46 3525.67 2345.32 3525.67 2329.13 3525.67 2312.93 3538.8 2299.79 3555 2299.79 3571.2 2299.79 3584.33 2312.93 3584.33 2329.13" fill="#7e2f8e"/>
<path transform="matrix(.1,0,0,-.1,0,282.5)" d="M3555 2348.46C3565.68 2348.46 3574.33 2339.8 3574.33 2329.13 3574.33 2318.45 3565.68 2309.79 3555 2309.79 3544.32 2309.79 3535.67 2318.45 3535.67 2329.13 3535.67 2339.8 3544.32 2348.46 3555 2348.46ZM3555 2368.46C3533.28 2368.46 3515.67 2350.85 3515.67 2329.13 3515.67 2307.4 3533.28 2289.79 3555 2289.79 3576.72 2289.79 3594.33 2307.4 3594.33 2329.13 3594.33 2350.85 3576.72 2368.46 3555 2368.46" fill="#7e2f8e"/>
<path transform="matrix(.1,0,0,-.1,0,282.5)" stroke-width="19.9998" stroke-linecap="butt" stroke-linejoin="round" fill="none" stroke="#77ac30" d="M329.254 733.293 1135.68 1459.83 1942.11 2021.1 2748.54 2715.41"/>
<path transform="matrix(.1,0,0,-.1,0,282.5)" d="M358.594 733.273C358.594 749.473 345.461 762.605 329.258 762.605 313.059 762.605 299.926 749.473 299.926 733.273 299.926 717.07 313.059 703.938 329.258 703.938 345.461 703.938 358.594 717.07 358.594 733.273" fill="#77ac30"/>
<path transform="matrix(.1,0,0,-.1,0,282.5)" d="M329.258 752.605C339.938 752.605 348.594 743.949 348.594 733.273 348.594 722.594 339.938 713.938 329.258 713.938 318.582 713.938 309.926 722.594 309.926 733.273 309.926 743.949 318.582 752.605 329.258 752.605ZM329.258 772.605C307.535 772.605 289.926 754.996 289.926 733.273 289.926 711.547 307.535 693.938 329.258 693.938 350.984 693.938 368.594 711.547 368.594 733.273 368.594 754.996 350.984 772.605 329.258 772.605" fill="#77ac30"/>
<path transform="matrix(.1,0,0,-.1,0,282.5)" d="M1165.03 1459.82C1165.03 1476.02 1151.89 1489.15 1135.7 1489.15 1119.5 1489.15 1106.36 1476.02 1106.36 1459.82 1106.36 1443.62 1119.5 1430.48 1135.7 1430.48 1151.89 1430.48 1165.03 1443.62 1165.03 1459.82" fill="#77ac30"/>
<path transform="matrix(.1,0,0,-.1,0,282.5)" d="M1135.7 1479.15C1146.37 1479.15 1155.03 1470.49 1155.03 1459.82 1155.03 1449.14 1146.37 1440.48 1135.7 1440.48 1125.02 1440.48 1116.36 1449.14 1116.36 1459.82 1116.36 1470.49 1125.02 1479.15 1135.7 1479.15ZM1135.7 1499.15C1113.97 1499.15 1096.36 1481.54 1096.36 1459.82 1096.36 1438.09 1113.97 1420.48 1135.7 1420.48 1157.42 1420.48 1175.03 1438.09 1175.03 1459.82 1175.03 1481.54 1157.42 1499.15 1135.7 1499.15" fill="#77ac30"/>
<path transform="matrix(.1,0,0,-.1,0,282.5)" d="M1971.46 2021.09C1971.46 2037.29 1958.33 2050.42 1942.13 2050.42 1925.93 2050.42 1912.8 2037.29 1912.8 2021.09 1912.8 2004.89 1925.93 1991.76 1942.13 1991.76 1958.33 1991.76 1971.46 2004.89 1971.46 2021.09" fill="#77ac30"/>
<path transform="matrix(.1,0,0,-.1,0,282.5)" d="M1942.13 2040.42C1952.8 2040.42 1961.46 2031.77 1961.46 2021.09 1961.46 2010.41 1952.8 2001.76 1942.13 2001.76 1931.45 2001.76 1922.8 2010.41 1922.8 2021.09 1922.8 2031.77 1931.45 2040.42 1942.13 2040.42ZM1942.13 2060.42C1920.41 2060.42 1902.8 2042.81 1902.8 2021.09 1902.8 1999.37 1920.41 1981.76 1942.13 1981.76 1963.85 1981.76 1981.46 1999.37 1981.46 2021.09 1981.46 2042.81 1963.85 2060.42 1942.13 2060.42" fill="#77ac30"/>
<path transform="matrix(.1,0,0,-.1,0,282.5)" d="M2777.9 2715.41C2777.9 2731.61 2764.77 2744.74 2748.57 2744.74 2732.36 2744.74 2719.23 2731.61 2719.23 2715.41 2719.23 2699.21 2732.36 2686.08 2748.57 2686.08 2764.77 2686.08 2777.9 2699.21 2777.9 2715.41" fill="#77ac30"/>
<path transform="matrix(.1,0,0,-.1,0,282.5)" d="M2748.57 2734.74C2759.24 2734.74 2767.9 2726.09 2767.9 2715.41 2767.9 2704.73 2759.24 2696.08 2748.57 2696.08 2737.89 2696.08 2729.23 2704.73 2729.23 2715.41 2729.23 2726.09 2737.89 2734.74 2748.57 2734.74ZM2748.57 2754.74C2726.84 2754.74 2709.23 2737.13 2709.23 2715.41 2709.23 2693.69 2726.84 2676.08 2748.57 2676.08 2770.29 2676.08 2787.9 2693.69 2787.9 2715.41 2787.9 2737.13 2770.29 2754.74 2748.57 2754.74" fill="#77ac30"/>
</svg>
